<?xml version="1.0" encoding="UTF-8"?>
<svg width="45px" height="32px" viewBox="0 0 45 32" version="1.1" xmlns="http://www.w3.org/2000/svg" xmlns:xlink="http://www.w3.org/1999/xlink">
    <title>CCE377F8-016D-4B3E-B5F2-6E59DABE4710</title>
    <g id="2.-Catalog" stroke="none" stroke-width="1" fill="none" fill-rule="evenodd">
        <g id="catalog" transform="translate(-390.000000, -298.000000)" fill="#CBD0D8" fill-rule="nonzero">
            <g id="filters-vehicle" transform="translate(360.000000, 269.000000)">
                <g id="Car-Management" transform="translate(30.000000, 29.000000)">
                    <path d="M37.035,0 L38.415,8.38095238 L45,8.38095238 L45,12.952381 L41.265,12.952381 L42,15.2380952 L42,32 L36,32 L36,27.4285714 L9,27.4285714 L9,32 L3,32 L3,15.2380952 L3.705,12.952381 L0,12.952381 L0,8.38095238 L6.585,8.38095238 L7.965,0 L37.035,0 M9,12.1904762 L36,12.1904762 L34.5,3.04761905 L10.5,3.04761905 L9,12.1904762 M33,21.3333333 L39,21.3333333 L39,18.2857143 L35.25,18.2857143 L33,21.3333333 M18,22.8571429 L27,22.8571429 L30,18.2857143 L15,18.2857143 L18,22.8571429 M6,21.3333333 L12,21.3333333 L9.75,18.2857143 L6,18.2857143 L6,21.3333333" id="Shape"></path>
                </g>
            </g>
        </g>
    </g>
</svg>