<?xml version="1.0" encoding="UTF-8"?>
<svg width="32px" height="32px" viewBox="0 0 32 32" version="1.1" xmlns="http://www.w3.org/2000/svg" xmlns:xlink="http://www.w3.org/1999/xlink">
    <title>D35DBB55-E01D-449C-B58A-AAB95C6CA2A6</title>
    <defs>
        <filter color-interpolation-filters="auto" id="filter-1">
            <feColorMatrix in="SourceGraphic" type="matrix" values="0 0 0 0 0.145098 0 0 0 0 0.227451 0 0 0 0 0.286275 0 0 0 1.000000 0"></feColorMatrix>
        </filter>
    </defs>
    <g id="11.-About-us" stroke="none" stroke-width="1" fill="none" fill-rule="evenodd">
        <g id="icons/-phone" transform="translate(-1083.000000, -1740.000000)" filter="url(#filter-1)">
            <g transform="translate(1083.000000, 1740.000000)" id="phone-fill">
                <polygon id="Path" points="0 0 32 0 32 32 0 32"></polygon>
                <path d="M28,21.8933333 L28,26.608 C28.0003173,27.3083925 27.4586745,27.8896393 26.76,27.9386667 C26.1773333,27.9786667 25.7013333,27.9999997 25.3333333,27.9999997 C13.5506667,27.9999997 4,18.4493333 4,6.66666667 C4,6.29866667 4.02,5.82266667 4.06133333,5.24 C4.11036074,4.54132548 4.69160749,3.99968272 5.392,3.99999965 L10.1066667,3.99999965 C10.4492987,3.99965308 10.7364036,4.25908523 10.7706667,4.6 C10.8013333,4.90666667 10.8293333,5.15066667 10.856,5.336 C11.120979,7.18523093 11.6640037,8.9837757 12.4666667,10.6706667 C12.5933333,10.9373333 12.5106667,11.256 12.2706667,11.4266667 L9.39333333,13.4826667 C11.1526045,17.5819352 14.4193982,20.8487289 18.5186667,22.608 L20.572,19.736 C20.7452007,19.4938609 21.0667854,19.4102377 21.336,19.5373333 C23.0226953,20.3384874 24.8207727,20.8801582 26.6693333,21.144 C26.8546667,21.1706667 27.0986667,21.2 27.4026667,21.2293333 C27.7430531,21.2642345 28.0017493,21.5511625 28.0013338,21.8933333 L28,21.8933333 Z" id="Path" fill="#000000" fill-rule="nonzero"></path>
            </g>
        </g>
    </g>
</svg>