<?xml version="1.0" encoding="UTF-8"?>
<svg width="32px" height="32px" viewBox="0 0 32 32" version="1.1" xmlns="http://www.w3.org/2000/svg" xmlns:xlink="http://www.w3.org/1999/xlink">
    <title>4BA51BFC-1E45-4F11-8A14-E9815645E9A8</title>
    <defs>
        <filter color-interpolation-filters="auto" id="filter-1">
            <feColorMatrix in="SourceGraphic" type="matrix" values="0 0 0 0 0.145098 0 0 0 0 0.227451 0 0 0 0 0.286275 0 0 0 1.000000 0"></feColorMatrix>
        </filter>
    </defs>
    <g id="11.-About-us" stroke="none" stroke-width="1" fill="none" fill-rule="evenodd">
        <g id="icons/-phone-copy" transform="translate(-1489.000000, -1740.000000)" filter="url(#filter-1)">
            <g transform="translate(1489.000000, 1740.000000)" id="mail-line">
                <polygon id="Path" points="0 0 32 0 32 32 0 32"></polygon>
                <path d="M4,4 L28,4 C28.7363797,4 29.3333333,4.59695367 29.3333333,5.33333333 L29.3333333,26.6666667 C29.3333333,27.4030463 28.7363797,28 28,28 L4,28 C3.26362033,28 2.66666667,27.4030463 2.66666667,26.6666667 L2.66666667,5.33333333 C2.66666667,4.59695367 3.26362033,4 4,4 Z M26.6666667,9.65066667 L16.096,19.1173333 L5.33333333,9.62133333 L5.33333333,25.3333333 L26.6666667,25.3333333 L26.6666667,9.65066667 Z M6.01466667,6.66666667 L16.0813333,15.5493333 L26.0026667,6.66666667 L6.01466667,6.66666667 Z" id="Shape" fill="#000000" fill-rule="nonzero"></path>
            </g>
        </g>
    </g>
</svg>