<?xml version="1.0" encoding="UTF-8"?>
<svg width="24px" height="24px" viewBox="0 0 24 24" version="1.1" xmlns="http://www.w3.org/2000/svg" xmlns:xlink="http://www.w3.org/1999/xlink">
    <title>D98F9694-6CEA-47D9-9EEF-93C663350766</title>
    <defs>
        <filter color-interpolation-filters="auto" id="filter-1">
            <feColorMatrix in="SourceGraphic" type="matrix" values="0 0 0 0 0.439216 0 0 0 0 0.498039 0 0 0 0 0.556863 0 0 0 1.000000 0"></feColorMatrix>
        </filter>
    </defs>
    <g id="3.-Product-inner" stroke="none" stroke-width="1" fill="none" fill-rule="evenodd">
        <g id="product-inner-warehouse-items" transform="translate(-868.000000, -662.000000)">
            <g id="product-preview" transform="translate(360.000000, 269.000000)">
                <g id="icons/-deposit" transform="translate(508.000000, 393.000000)" filter="url(#filter-1)">
                    <g id="hand-coin-line">
                        <polygon id="Path" points="0 0 24 0 24 24 0 24"></polygon>
                        <path d="M5,9 C5.55228475,9 6,9.44771525 6,10 C7.5711417,9.99768539 9.09698098,10.5262671 10.33,11.5 L12.5,11.5 C13.833,11.5 15.03,12.08 15.854,13 L19,13 C20.929307,12.9994678 22.6867839,14.1089821 23.516,15.851 C21.151,18.972 17.322,21 13,21 C10.21,21 7.85,20.397 5.94,19.342 C5.79667503,19.737536 5.42070213,20.0007171 5,20 L2,20 C1.44771525,20 1,19.5522847 1,19 L1,10 C1,9.44771525 1.44771525,9 2,9 L5,9 L5,9 Z M6.001,11.9999987 L6,17.022 L6.045,17.054 C7.84,18.314 10.178,18.9999987 13,18.9999987 C16.004,18.9999987 18.799,17.844 20.835,15.87 L20.968,15.737 L20.848,15.637 C20.3758006,15.2671692 19.8034075,15.047688 19.205,15.007 L19,14.9999987 L16.889,14.9999987 C16.961,15.322 17,15.656 17,15.9999987 L17,16.9999987 L8,16.9999987 L8,14.9999987 L14.79,14.999 L14.756,14.921 C14.3657965,14.1056294 13.5659843,13.5642651 12.664,13.505 L12.5,13.4999987 L9.57,13.4999987 C8.6312391,12.5398483 7.34481882,11.9990326 6.002,11.9999987 L6.001,11.9999987 Z M4,11 L3,11 L3,18 L4,18 L4,11 Z M18,5 C19.6568542,5 21,6.34314575 21,8 C21,9.65685425 19.6568542,11 18,11 C16.3431458,11 15,9.65685425 15,8 C15,6.34314575 16.3431458,5 18,5 Z M18,7 C17.4477153,7 17,7.44771525 17,8 C17,8.55228475 17.4477153,9 18,9 C18.5522847,9 19,8.55228475 19,8 C19,7.44771525 18.5522847,7 18,7 Z M11,2 C12.6568542,2 14,3.34314575 14,5 C14,6.65685425 12.6568542,8 11,8 C9.34314575,8 8,6.65685425 8,5 C8,3.34314575 9.34314575,2 11,2 Z M11,4 C10.4477153,4 10,4.44771525 10,5 C10,5.55228475 10.4477153,6 11,6 C11.5522847,6 12,5.55228475 12,5 C12,4.44771525 11.5522847,4 11,4 Z" id="Shape" fill="#000000" fill-rule="nonzero"></path>
                    </g>
                </g>
            </g>
        </g>
    </g>
</svg>