<?xml version="1.0" encoding="UTF-8"?>
<svg width="16px" height="16px" viewBox="0 0 16 16" version="1.1" xmlns="http://www.w3.org/2000/svg" xmlns:xlink="http://www.w3.org/1999/xlink">
    <title>663E6663-1859-42C1-B141-8F86F83D9CFB</title>
    <defs>
        <filter color-interpolation-filters="auto" id="filter-1">
            <feColorMatrix in="SourceGraphic" type="matrix" values="0 0 0 0 0.898039 0 0 0 0 0.003922 0 0 0 0 0.270588 0 0 0 1.000000 0"></feColorMatrix>
        </filter>
    </defs>
    <g id="2.-Catalog" stroke="none" stroke-width="1" fill="none" fill-rule="evenodd">
        <g id="icons/-document" transform="translate(-685.000000, -907.000000)" filter="url(#filter-1)">
            <g transform="translate(685.000000, 907.000000)" id="file-text-fill">
                <polygon id="Path" points="0 0 16 0 16 16 0 16"></polygon>
                <path d="M14.0000165,6 L14.0000165,13.9953333 C14.001242,14.1721456 13.9321925,14.3422091 13.8080425,14.4681094 C13.6838925,14.5940098 13.5148124,14.6654333 13.338,14.6666667 L2.662,14.6666667 C2.29664769,14.6666667 2.00036793,14.3706855 2,14.0053333 L2,1.99466667 C2,1.63666667 2.298,1.33333333 2.66533333,1.33333333 L9.33333333,1.33333333 L9.33333333,5.33333333 C9.33333333,5.70152317 9.63181017,6 10,6 L14.0000165,6 Z M14,4.66666667 L10.6666667,4.66666667 L10.6666667,1.33533333 L14,4.66666667 Z M5.33333333,4.66666667 L5.33333333,6 L7.33333333,6 L7.33333333,4.66666667 L5.33333333,4.66666667 Z M5.33333333,7.33333333 L5.33333333,8.66666667 L10.6666667,8.66666667 L10.6666667,7.33333333 L5.33333333,7.33333333 Z M5.33333333,10 L5.33333333,11.3333333 L10.6666667,11.3333333 L10.6666667,10 L5.33333333,10 Z" id="Shape" fill="#000000" fill-rule="nonzero"></path>
            </g>
        </g>
    </g>
</svg>