<?xml version="1.0" encoding="UTF-8"?>
<svg width="24px" height="24px" viewBox="0 0 24 24" version="1.1" xmlns="http://www.w3.org/2000/svg" xmlns:xlink="http://www.w3.org/1999/xlink">
    <title>AFEF4571-255D-4EA3-BE06-C2E5990A38FD</title>
    <defs>
        <filter color-interpolation-filters="auto" id="filter-1">
            <feColorMatrix in="SourceGraphic" type="matrix" values="0 0 0 0 0.796078 0 0 0 0 0.815686 0 0 0 0 0.847059 0 0 0 1.000000 0"></feColorMatrix>
        </filter>
    </defs>
    <g id="stylesheet" stroke="none" stroke-width="1" fill="none" fill-rule="evenodd">
        <g id="modals" transform="translate(-896.000000, -5047.000000)">
            <g id="inputs/-simple-copy" transform="translate(665.000000, 5014.000000)">
                <g id="icons/-eye-off" transform="translate(231.000000, 33.000000)" filter="url(#filter-1)">
                    <g id="invisible" transform="translate(3.000000, 5.000000)" fill="#000000">
                        <path d="M1.85286084,0.00195812808 L16.2890493,13.9763424 L15.2506256,14.9773153 L12.8764914,12.6758498 L12.5303374,12.3408621 C11.4267451,12.770431 10.2213719,13.0068842 8.95896182,13.0068842 C4.88669951,13.0068842 1.40901108,10.5556404 -1.20792265e-13,7.09555419 C0.635270936,5.5310468 1.69812808,4.17931034 3.04197044,3.16256158 L3.04197044,3.16256158 L2.671383,2.80392857 L0.814437192,1.00688424 L1.85286084,0.00195812808 Z M5.31837069,5.36157635 C5.04960222,5.88964286 4.88669951,6.4729064 4.88669951,7.09555419 C4.88669951,9.27092365 6.71108005,11.0364532 8.95896182,11.0364532 C9.60240271,11.0364532 10.2050702,10.8788054 10.7466921,10.6187069 L10.7466921,10.6187069 L9.488367,9.40097291 C9.31733251,9.43644089 9.14221305,9.46008621 8.95896182,9.46008621 C7.61103448,9.46008621 6.51561207,8.4 6.51561207,7.09555419 C6.51561207,6.91821429 6.54004557,6.74878079 6.57669581,6.57931034 L6.57669581,6.57931034 Z M8.959,1.18426108 C13.0353091,1.18426108 16.5089507,3.63550493 17.9220086,7.09559113 C17.3233879,8.56160099 16.3541798,9.84631773 15.1243732,10.8394212 L15.1243732,10.8394212 L12.7421071,8.53400246 C12.9253584,8.08869458 13.0312241,7.60396552 13.0312241,7.09559113 C13.0312241,4.92022167 11.2068436,3.15469212 8.95896182,3.15469212 C8.43364163,3.15469212 7.93275493,3.26109606 7.47264163,3.43448276 L7.47264163,3.43448276 L5.7134298,1.73597291 C6.72741995,1.3812931 7.81875739,1.18426108 8.959,1.18426108 Z M8.95896182,4.73102217 C10.3068892,4.73102217 11.4023116,5.79110837 11.4023116,7.09555419 L11.4023116,7.09555419 L11.3900948,7.22560345 L8.82457759,4.74284483 Z" id="Combined-Shape"></path>
                    </g>
                </g>
            </g>
        </g>
    </g>
</svg>