<?xml version="1.0" encoding="UTF-8"?>
<svg width="24px" height="24px" viewBox="0 0 24 24" version="1.1" xmlns="http://www.w3.org/2000/svg" xmlns:xlink="http://www.w3.org/1999/xlink">
    <title>E59265BA-F990-4389-9607-73A5E62990ED</title>
    <defs>
        <filter color-interpolation-filters="auto" id="filter-1">
            <feColorMatrix in="SourceGraphic" type="matrix" values="0 0 0 0 0.796078 0 0 0 0 0.815686 0 0 0 0 0.847059 0 0 0 1.000000 0"></feColorMatrix>
        </filter>
    </defs>
    <g id="stylesheet" stroke="none" stroke-width="1" fill="none" fill-rule="evenodd">
        <g id="modals" transform="translate(-611.000000, -5047.000000)">
            <g id="inputs/-simple" transform="translate(380.000000, 5014.000000)">
                <g id="icons/-eye-off" transform="translate(231.000000, 33.000000)" filter="url(#filter-1)">
                    <g id="visibility-button" transform="translate(3.000000, 6.000000)" fill="#000000" fill-rule="nonzero">
                        <path d="M8.90727542,0.00783289817 C4.85851387,0.00783289817 1.37657893,2.4845953 0,6 C1.37657893,9.5154047 4.85851387,11.9921671 8.90727542,11.9921671 C12.956037,11.9921671 16.4379719,9.5154047 17.8145508,6 C16.4379719,2.4845953 12.956037,0.00783289817 8.90727542,0.00783289817 Z M8.90727542,9.99477807 C6.63996895,9.99477807 4.85851387,8.23707572 4.85851387,6 C4.85851387,3.76292428 6.63996895,2.00522193 8.90727542,2.00522193 C11.1745819,2.00522193 12.956037,3.76292428 12.956037,6 C12.956037,8.23707572 11.1745819,9.99477807 8.90727542,9.99477807 Z M8.90727542,3.60313316 C7.53069649,3.60313316 6.47801849,4.64177546 6.47801849,6 C6.47801849,7.35822454 7.53069649,8.39686684 8.90727542,8.39686684 C10.2838544,8.39686684 11.3365324,7.35822454 11.3365324,6 C11.3365324,4.64177546 10.2838544,3.60313316 8.90727542,3.60313316 Z" id="Shape"></path>
                    </g>
                </g>
            </g>
        </g>
    </g>
</svg>