<?xml version="1.0" encoding="UTF-8"?>
<svg width="24px" height="24px" viewBox="0 0 24 24" version="1.1" xmlns="http://www.w3.org/2000/svg" xmlns:xlink="http://www.w3.org/1999/xlink">
    <title>63244432-FCE2-4C73-9EA1-7638CA76740F</title>
    <defs>
        <filter id="filter-1">
            <feColorMatrix in="SourceGraphic" type="matrix" values="0 0 0 0 0.611765 0 0 0 0 0.650980 0 0 0 0 0.701961 0 0 0 1.000000 0"></feColorMatrix>
        </filter>
    </defs>
    <g id="1.-Home" stroke="none" stroke-width="1" fill="none" fill-rule="evenodd">
        <g id="information-dropdown" transform="translate(-970.000000, -2844.000000)">
            <g id="Group-3" transform="translate(0.000000, 1996.000000)">
                <g id="Group-2" transform="translate(0.000000, 441.000000)">
                    <g id="icons/-facebook" transform="translate(0.000000, 235.000000)" filter="url(#filter-1)">
                        <g transform="translate(970.000000, 172.000000)" id="facebook-box-line" fill="#000000" fill-rule="nonzero">
                            <path d="M14.6666667,21.3333333 L21.3333333,21.3333333 L21.3333333,2.66666667 L2.66666667,2.66666667 L2.66666667,21.3333333 L12,21.3333333 L12,14.6666667 L9.33333333,14.6666667 L9.33333333,12 L12,12 L12,9.79466667 C12,8.012 12.1866667,7.36533333 12.5333333,6.71333333 C12.8748193,6.0682476 13.4026138,5.54091774 14.048,5.2 C14.5573333,4.92666667 15.1906667,4.76266667 16.2973333,4.692 C16.736,4.664 17.304,4.69866667 18.0013333,4.79866667 L18.0013333,7.332 L17.3333333,7.332 C16.1106667,7.332 15.6053333,7.38933333 15.304,7.55066667 C15.1241954,7.64314229 14.977809,7.78952876 14.8853333,7.96933333 C14.7253333,8.27066667 14.6666667,8.56933333 14.6666667,9.79333333 L14.6666667,12 L18,12 L17.3333333,14.6666667 L14.6666667,14.6666667 L14.6666667,21.3333333 Z M1.33333333,0 L22.6666667,0 C23.4030463,0 24,0.596953667 24,1.33333333 L24,22.6666667 C24,23.4030463 23.4030463,24 22.6666667,24 L1.33333333,24 C0.596953667,24 0,23.4030463 0,22.6666667 L0,1.33333333 C0,0.596953667 0.596953667,0 1.33333333,0 Z" id="Shape"></path>
                        </g>
                    </g>
                </g>
            </g>
        </g>
    </g>
</svg>