<?xml version="1.0" encoding="UTF-8"?>
<svg width="24px" height="24px" viewBox="0 0 24 24" version="1.1" xmlns="http://www.w3.org/2000/svg" xmlns:xlink="http://www.w3.org/1999/xlink">
    <title>5F506596-D15F-4AC9-A4B1-62A378B8D3CB</title>
    <defs>
        <filter id="filter-1">
            <feColorMatrix in="SourceGraphic" type="matrix" values="0 0 0 0 0.611765 0 0 0 0 0.650980 0 0 0 0 0.701961 0 0 0 1.000000 0"></feColorMatrix>
        </filter>
    </defs>
    <g id="1.-Home" stroke="none" stroke-width="1" fill="none" fill-rule="evenodd">
        <g id="home-user" transform="translate(-1408.000000, -116.000000)">
            <g id="icons/-favourite-line" transform="translate(0.000000, 32.000000)" filter="url(#filter-1)">
                <g transform="translate(1408.000000, 84.000000)" id="heart-line">
                    <polygon id="Path" points="0 0 24 0 24 24 0 24"></polygon>
                    <path d="M12.001,4.529 C14.35,2.42 17.98,2.49 20.243,4.757 C22.505,7.025 22.583,10.637 20.479,12.993 L11.999,21.485 L3.521,12.993 C1.417,10.637 1.496,7.019 3.757,4.757 C6.022,2.493 9.645,2.417 12.001,4.529 Z M18.827,6.17 C17.327,4.668 14.907,4.607 13.337,6.017 L12.002,7.215 L10.666,6.018 C9.091,4.606 6.676,4.668 5.172,6.172 C3.682,7.662 3.607,10.047 4.98,11.623 L12,18.654 L19.02,11.624 C20.394,10.047 20.319,7.665 18.827,6.17 Z" id="Shape" fill="#000000" fill-rule="nonzero"></path>
                </g>
            </g>
        </g>
    </g>
</svg>