<?xml version="1.0" encoding="UTF-8"?>
<svg width="28px" height="28px" viewBox="0 0 28 28" version="1.1" xmlns="http://www.w3.org/2000/svg" xmlns:xlink="http://www.w3.org/1999/xlink">
    <title>4AF4DD5F-ADE5-48DB-BB1C-E31871B6CFC0</title>
    <defs>
        <filter id="filter-1">
            <feColorMatrix in="SourceGraphic" type="matrix" values="0 0 0 0 0.611765 0 0 0 0 0.650980 0 0 0 0 0.701961 0 0 0 1.000000 0"></feColorMatrix>
        </filter>
    </defs>
    <g id="1.-Home" stroke="none" stroke-width="1" fill="none" fill-rule="evenodd">
        <g id="information-dropdown" transform="translate(-1014.000000, -2842.000000)">
            <g id="Group-3" transform="translate(0.000000, 1996.000000)">
                <g id="Group-2" transform="translate(0.000000, 441.000000)">
                    <g id="icons/-instagram" transform="translate(0.000000, 235.000000)" filter="url(#filter-1)">
                        <g transform="translate(1014.000000, 170.000000)" id="instagram-line" fill="#000000" fill-rule="nonzero">
                            <path d="M14,10 C11.790861,10 10,11.790861 10,14 C10,16.209139 11.790861,18 14,18 C16.209139,18 18,16.209139 18,14 C18,11.790861 16.209139,10 14,10 Z M14,7.33333333 C17.6818983,7.33333333 20.6666667,10.3181017 20.6666667,14 C20.6666667,17.6818983 17.6818983,20.6666667 14,20.6666667 C10.3181017,20.6666667 7.33333333,17.6818983 7.33333333,14 C7.33333333,10.3181017 10.3181017,7.33333333 14,7.33333333 L14,7.33333333 Z M22.6666667,7 C22.6666667,7.92047458 21.9204746,8.66666667 21,8.66666667 C20.0795254,8.66666667 19.3333333,7.92047458 19.3333333,7 C19.3333333,6.07952542 20.0795254,5.33333333 21,5.33333333 C21.9204746,5.33333333 22.6666667,6.07952542 22.6666667,7 Z M14,3.33333333 C10.7013333,3.33333333 10.1626667,3.34266667 8.628,3.41066667 C7.58266667,3.46 6.88133333,3.6 6.23066667,3.85333333 C5.652,4.07733333 5.23466667,4.34533333 4.79066667,4.79066667 C4.37334248,5.19386547 4.0524709,5.68611165 3.852,6.23066667 C3.59866667,6.884 3.45866667,7.584 3.41066667,8.628 C3.34133333,10.1 3.33333333,10.6146667 3.33333333,14 C3.33333333,17.2986667 3.34266667,17.8373333 3.41066667,19.372 C3.46,20.416 3.6,21.1186667 3.852,21.768 C4.07866667,22.348 4.34533333,22.7653333 4.788,23.208 C5.23733333,23.656 5.65466667,23.924 6.228,24.1453333 C6.88666667,24.4 7.588,24.5413333 8.628,24.5893333 C10.1,24.6586667 10.6146667,24.6666667 14,24.6666667 C17.2986667,24.6666667 17.8373333,24.6573333 19.372,24.5893333 C20.4146667,24.54 21.1173333,24.4 21.768,24.148 C22.3453333,23.9226667 22.7653333,23.6546667 23.208,23.212 C23.6573333,22.7626667 23.9253333,22.3453333 24.1466667,21.772 C24.4,21.1146667 24.5413333,20.412 24.5893333,19.372 C24.6586667,17.9 24.6666667,17.3853333 24.6666667,14 C24.6666667,10.7013333 24.6573333,10.1626667 24.5893333,8.628 C24.54,7.58533333 24.4,6.88133333 24.1466667,6.23066667 C23.9457235,5.68666912 23.625432,5.19461394 23.2093333,4.79066667 C22.8063116,4.37312812 22.314013,4.05222242 21.7693333,3.852 C21.116,3.59866667 20.4146667,3.45866667 19.372,3.41066667 C17.9,3.34133333 17.3853333,3.33333333 14,3.33333333 Z M14,0.666666667 C17.6226667,0.666666667 18.0746667,0.68 19.496,0.746666667 C20.916,0.813333333 21.8826667,1.036 22.7333333,1.36666667 C23.6133333,1.70533333 24.3546667,2.164 25.096,2.904 C25.7739916,3.57052795 26.2986048,4.37678528 26.6333333,5.26666667 C26.9626667,6.116 27.1866667,7.084 27.2533333,8.504 C27.316,9.92533333 27.3333333,10.3773333 27.3333333,14 C27.3333333,17.6226667 27.32,18.0746667 27.2533333,19.496 C27.1866667,20.916 26.9626667,21.8826667 26.6333333,22.7333333 C26.2995688,23.623702 25.7748276,24.430156 25.096,25.096 C24.4292819,25.773759 23.6230791,26.2983368 22.7333333,26.6333333 C21.884,26.9626667 20.916,27.1866667 19.496,27.2533333 C18.0746667,27.316 17.6226667,27.3333333 14,27.3333333 C10.3773333,27.3333333 9.92533333,27.32 8.504,27.2533333 C7.084,27.1866667 6.11733333,26.9626667 5.26666667,26.6333333 C4.3764349,26.2992978 3.57003629,25.7745926 2.904,25.096 C2.22587525,24.429581 1.70124164,23.6232924 1.36666667,22.7333333 C1.036,21.884 0.813333333,20.916 0.746666667,19.496 C0.684,18.0746667 0.666666667,17.6226667 0.666666667,14 C0.666666667,10.3773333 0.68,9.92533333 0.746666667,8.504 C0.813333333,7.08266667 1.036,6.11733333 1.36666667,5.26666667 C1.7003148,4.37623921 2.22507152,3.56976141 2.904,2.904 C3.57022797,2.22564164 4.37657145,1.70097232 5.26666667,1.36666667 C6.11733333,1.036 7.08266667,0.813333333 8.504,0.746666667 C9.92533333,0.684 10.3773333,0.666666667 14,0.666666667 Z" id="Shape"></path>
                        </g>
                    </g>
                </g>
            </g>
        </g>
    </g>
</svg>