<?xml version="1.0" encoding="UTF-8"?>
<svg width="24px" height="24px" viewBox="0 0 24 24" version="1.1" xmlns="http://www.w3.org/2000/svg" xmlns:xlink="http://www.w3.org/1999/xlink">
    <title>E805F211-852B-487D-802B-E36BAFE589D3</title>
    <defs>
        <filter color-interpolation-filters="auto" id="filter-1">
            <feColorMatrix in="SourceGraphic" type="matrix" values="0 0 0 0 0.439216 0 0 0 0 0.498039 0 0 0 0 0.556863 0 0 0 1.000000 0"></feColorMatrix>
        </filter>
    </defs>
    <g id="3.-Product-inner" stroke="none" stroke-width="1" fill="none" fill-rule="evenodd">
        <g id="product-inner-warehouse-items" transform="translate(-868.000000, -633.000000)">
            <g id="product-preview" transform="translate(360.000000, 269.000000)">
                <g id="icons/-items" transform="translate(508.000000, 364.000000)" filter="url(#filter-1)">
                    <g id="function-line">
                        <polygon id="Path" points="0 0 24 0 24 24 0 24"></polygon>
                        <path d="M3,3 L11,3 L11,11 L3,11 L3,3 Z M3,13 L11,13 L11,21 L3,21 L3,13 Z M13,3 L21,3 L21,11 L13,11 L13,3 Z M13,13 L21,13 L21,21 L13,21 L13,13 Z M15,5 L15,9 L19,9 L19,5 L15,5 Z M15,15 L15,19 L19,19 L19,15 L15,15 Z M5,5 L5,9 L9,9 L9,5 L5,5 Z M5,15 L5,19 L9,19 L9,15 L5,15 Z" id="Shape" fill="#000000" fill-rule="nonzero"></path>
                    </g>
                </g>
            </g>
        </g>
    </g>
</svg>