<?xml version="1.0" encoding="UTF-8"?>
<svg width="100px" height="100px" viewBox="0 0 100 100" version="1.1" xmlns="http://www.w3.org/2000/svg" xmlns:xlink="http://www.w3.org/1999/xlink">
    <title>6A9D54C7-BF65-4679-A042-E0A82C8215F7</title>
    <g id="3.-Product-inner" stroke="none" stroke-width="1" fill="none" fill-rule="evenodd">
        <g id="product-inner-no-photo" transform="translate(-550.000000, -459.000000)" fill="#E5E8EC" fill-rule="nonzero">
            <g id="image" transform="translate(550.000000, 459.000000)">
                <path d="M72.9316711,0 L27.0690918,0 C12.1429443,0 0,12.1429443 0,27.0690918 L0,72.9309082 C0,87.8570557 12.1429443,100 27.0690918,100 L72.9316711,100 C87.8570557,100 100,87.8570557 100,72.9309082 L100,27.0690918 C100,12.1429443 87.8570557,0 72.9316711,0 Z M94.1375732,72.9309082 C94.1375732,84.6244812 84.6244813,94.1375732 72.9309082,94.1375732 L27.0690918,94.1375732 C15.3755188,94.1375732 5.86242676,84.6244812 5.86242676,72.9309082 L5.86242676,72.6737977 L22.6768494,57.195282 C23.1529236,56.7573547 23.8990783,56.7573547 24.3751525,57.1945191 L37.2413635,69.0063477 C38.733673,70.3765869 40.7455445,71.0456848 42.7627563,70.8450316 C44.7792053,70.6436156 46.6186523,69.5877074 47.8111268,67.9489137 L70.5162049,36.7286682 C70.817566,36.3151551 71.2303162,36.228943 71.4492797,36.2144471 C71.6682434,36.201477 72.088623,36.2312316 72.4411012,36.6027832 L94.1375732,59.4642639 L94.1375732,72.9309082 L94.1375732,72.9309082 Z M94.1375732,50.9483338 L76.6937256,32.5675965 C75.2342225,31.0295105 73.1857301,30.2268982 71.0670471,30.3649902 C68.951416,30.5030822 67.0227051,31.565857 65.775299,33.2809449 L43.069458,64.5011902 C42.7818299,64.8963928 42.3881531,64.9909973 42.1791076,65.0115967 C41.9708252,65.0321961 41.5664672,65.0184631 41.2063598,64.6873475 L28.3401488,52.8762816 C25.6370545,50.3936768 21.4057922,50.3974914 18.7065125,52.8823852 L5.86242676,64.705658 L5.86242676,27.0690918 C5.86242676,15.3755187 15.3755188,5.86242676 27.0690918,5.86242676 L72.9316711,5.86242676 C84.6244813,5.86242676 94.1375732,15.3755187 94.1375732,27.0690918 L94.1375732,50.9483338 Z" id="Shape"></path>
                <path d="M27.9121398,16.9403076 C22.2320557,16.9403076 17.6101684,21.5621949 17.6101684,27.243042 C17.6101684,32.9231262 22.2320557,37.5450135 27.9121398,37.5450135 C33.5929871,37.5450135 38.2141113,32.9231262 38.2141113,27.243042 C38.2148742,21.5621949 33.5929871,16.9403076 27.9121398,16.9403076 Z M27.9121398,31.6818238 C25.4646301,31.6818238 23.4725953,29.6905518 23.4725953,27.2422791 C23.4725953,24.7947693 25.4646301,22.8027344 27.9121398,22.8027344 C30.3604125,22.8027344 32.3516846,24.7940062 32.3516846,27.2422791 C32.3516846,29.6905518 30.3604125,31.6818238 27.9121398,31.6818238 Z" id="Shape"></path>
            </g>
        </g>
    </g>
</svg>