<?xml version="1.0" encoding="UTF-8"?>
<svg width="14px" height="14px" viewBox="0 0 14 14" version="1.1" xmlns="http://www.w3.org/2000/svg" xmlns:xlink="http://www.w3.org/1999/xlink">
    <title>11351E19-C59C-4C3B-A938-4D770A1B9797</title>
    <defs>
        <filter color-interpolation-filters="auto" id="filter-1">
            <feColorMatrix in="SourceGraphic" type="matrix" values="0 0 0 0 0.145098 0 0 0 0 0.227451 0 0 0 0 0.286275 0 0 0 1.000000 0"></feColorMatrix>
        </filter>
    </defs>
    <g id="17.-mobile" stroke="none" stroke-width="1" fill="none" fill-rule="evenodd">
        <g id="checkout---bank-payment" transform="translate(-198.000000, -18.000000)">
            <g id="icons/-phone" transform="translate(0.000000, -0.000000)" filter="url(#filter-1)">
                <g transform="translate(198.000000, 18.000000)" id="phone-fill" fill="#000000" fill-rule="nonzero">
                    <path d="M14,10.4377778 L14,13.188 C14.0001851,13.5965623 13.6842268,13.9356229 13.2766667,13.9642222 C12.9367778,13.9875556 12.6591111,13.9999998 12.4444444,13.9999998 C5.57122222,13.9999998 0,8.42877778 0,1.55555556 C0,1.34088889 0.0116666667,1.06322222 0.0357777778,0.723333333 C0.0643770997,0.315773196 0.403437701,-0.000185079323 0.812,-2.02719939e-07 L3.56222222,-2.02719939e-07 C3.76209091,-0.000202369428 3.92956878,0.151133051 3.94955556,0.35 C3.96744444,0.528888889 3.98377778,0.671222222 3.99933333,0.779333333 C4.15390441,1.85805138 4.47066885,2.90720249 4.93888889,3.89122222 C5.01277778,4.04677778 4.96455556,4.23266667 4.82455556,4.33222222 L3.14611111,5.53155556 C4.1723526,7.92279551 6.07798227,9.82842518 8.46922222,10.8546667 L9.667,9.17933333 C9.76803374,9.03808553 9.9556248,8.9893053 10.1126667,9.06344444 C11.0965723,9.53078433 12.1454507,9.84675896 13.2237778,10.0006667 C13.3318889,10.0162222 13.4742222,10.0333333 13.6515556,10.0504444 C13.8501143,10.0708035 14.0010204,10.2381781 14.0007781,10.4377778 L14,10.4377778 Z" id="Path"></path>
                </g>
            </g>
        </g>
    </g>
</svg>