<?xml version="1.0" encoding="UTF-8"?>
<svg width="20px" height="20px" viewBox="0 0 20 20" version="1.1" xmlns="http://www.w3.org/2000/svg" xmlns:xlink="http://www.w3.org/1999/xlink">
    <title>2EACA9DB-FF9B-450C-9399-CD8EBB46FD63</title>
    <defs>
        <filter id="filter-1">
            <feColorMatrix in="SourceGraphic" type="matrix" values="0 0 0 0 0.611765 0 0 0 0 0.650980 0 0 0 0 0.701961 0 0 0 1.000000 0"></feColorMatrix>
        </filter>
    </defs>
    <g id="1.-Home" stroke="none" stroke-width="1" fill="none" fill-rule="evenodd">
        <g id="information-dropdown" transform="translate(-970.000000, -2741.000000)">
            <g id="Group-3" transform="translate(0.000000, 1996.000000)">
                <g id="Group-2" transform="translate(0.000000, 441.000000)">
                    <g id="footer/-desktop" transform="translate(0.000000, 235.000000)">
                        <g id="icons/-phone" transform="translate(970.000000, 69.000000)" filter="url(#filter-1)">
                            <g id="phone-fill">
                                <polygon id="Path" points="0 0 20 0 20 20 0 20"></polygon>
                                <path d="M17.5,13.6833333 L17.5,16.63 C17.5001983,17.0677453 17.1616716,17.4310245 16.725,17.4616667 C16.3608333,17.4866667 16.0633333,17.4999998 15.8333333,17.4999998 C8.46916667,17.4999998 2.5,11.5308333 2.5,4.16666667 C2.5,3.93666667 2.5125,3.63916667 2.53833333,3.275 C2.56897546,2.83832842 2.93225468,2.4998017 3.37,2.49999978 L6.31666667,2.49999978 C6.53081169,2.49978318 6.71025226,2.66192827 6.73166667,2.875 C6.75083333,3.06666667 6.76833333,3.21916667 6.785,3.335 C6.95061186,4.49076933 7.29000234,5.61485981 7.79166667,6.66916667 C7.87083333,6.83583333 7.81916667,7.035 7.66916667,7.14166667 L5.87083333,8.42666667 C6.97037779,10.9887095 9.01212386,13.0304555 11.5741667,14.13 L12.8575,12.335 C12.9657504,12.1836631 13.1667409,12.1313985 13.335,12.2108333 C14.3891846,12.7115546 15.5129829,13.0500989 16.6683333,13.215 C16.7841667,13.2316667 16.9366667,13.25 17.1266667,13.2683333 C17.3394082,13.2901466 17.5010933,13.4694766 17.5008336,13.6833333 L17.5,13.6833333 Z" id="Path" fill="#000000" fill-rule="nonzero"></path>
                            </g>
                        </g>
                    </g>
                </g>
            </g>
        </g>
    </g>
</svg>