<?xml version="1.0" encoding="UTF-8"?>
<svg width="32px" height="38px" viewBox="0 0 32 38" version="1.1" xmlns="http://www.w3.org/2000/svg" xmlns:xlink="http://www.w3.org/1999/xlink">
    <title>BFE8C747-9AB5-4FB4-BA8F-57A21DB95C90</title>
    <defs>
        <filter color-interpolation-filters="auto" id="filter-1">
            <feColorMatrix in="SourceGraphic" type="matrix" values="0 0 0 0 1.000000 0 0 0 0 1.000000 0 0 0 0 1.000000 0 0 0 1.000000 0"></feColorMatrix>
        </filter>
    </defs>
    <g id="13.-Contacts" stroke="none" stroke-width="1" fill="none" fill-rule="evenodd">
        <g id="contacts" transform="translate(-1049.000000, -1009.000000)">
            <g id="icons/-pin-services" transform="translate(1049.000000, 1009.000000)">
                <path d="M4,32 C1.790861,32 0,30.209139 0,28 L0,28 L0,4 C0,1.790861 1.790861,-4.05812251e-16 4,0 L4,0 L28,0 C30.209139,4.05812251e-16 32,1.790861 32,4 L32,4 L32,28 C32,30.209139 30.209139,32 28,32 L28,32 L22,32 L16,38 L10,32 Z" id="Combined-Shape-Copy-2" fill="#E50145"></path>
                <g id="icons/-services" transform="translate(6.000000, 5.000000)" filter="url(#filter-1)">
                    <g>
                        <polygon id="Path" fill="#000000" fill-rule="nonzero" points="12.0853859 16.6502463 9.45812808 15.5993432 6.30541872 16.6502463 3.15270936 15.5993432 0.52545156 16.6502463 0 21.3793103 12.6108374 21.3793103"></polygon>
                        <path d="M20.1313629,0.689655172 L20.1313629,8.04597701 L14.3513957,8.04597701 L11.7241379,10.6732348 L11.7241379,8.04597701 L9.62233169,8.04597701 L9.62233169,0.689655172 L20.1313629,0.689655172 Z M15.4022989,5.94417077 L14.3513957,5.94417077 L14.3513957,6.99507389 L15.4022989,6.99507389 L15.4022989,5.94417077 Z M15.4022989,1.74055829 L14.3513957,1.74055829 L14.3513957,4.89326765 L15.4022989,4.89326765 L15.4022989,1.74055829 Z" id="Shape" fill="#000000" fill-rule="nonzero"></path>
                        <path d="M6.30541872,15.0738916 C4.25615764,15.0738916 3.57307061,13.3924466 3.4679803,11.7110016 C3.36288998,9.87192118 4.4137931,8.24302135 6.30541872,8.24302135 C8.19704433,8.24302135 9.24794745,9.81937603 9.14285714,11.7110016 C9.03776683,13.3924466 8.3546798,15.0738916 6.30541872,15.0738916 Z" id="Path" fill="#000000" fill-rule="nonzero"></path>
                    </g>
                </g>
            </g>
        </g>
    </g>
</svg>