<?xml version="1.0" encoding="UTF-8"?>
<svg width="20px" height="20px" viewBox="0 0 20 20" version="1.1" xmlns="http://www.w3.org/2000/svg" xmlns:xlink="http://www.w3.org/1999/xlink">
    <title>68D767E3-B2BF-4C76-824F-20F0373E59E4</title>
    <defs>
        <filter color-interpolation-filters="auto" id="filter-1">
            <feColorMatrix in="SourceGraphic" type="matrix" values="0 0 0 0 0.611765 0 0 0 0 0.650980 0 0 0 0 0.701961 0 0 0 1.000000 0"></feColorMatrix>
        </filter>
    </defs>
    <g id="9.-Orders" stroke="none" stroke-width="1" fill="none" fill-rule="evenodd">
        <g id="icons/-print" transform="translate(-1205.000000, -269.000000)" filter="url(#filter-1)">
            <g transform="translate(1205.000000, 269.000000)" id="printer-line">
                <polygon id="Path" points="0 0 20 0 20 20 0 20"></polygon>
                <path d="M5,15.8333333 L2.5,15.8333333 C2.03976271,15.8333333 1.66666667,15.4602373 1.66666667,15 L1.66666667,6.66666667 C1.66666667,6.20642938 2.03976271,5.83333333 2.5,5.83333333 L5,5.83333333 L5,2.5 C5,2.03976271 5.37309604,1.66666667 5.83333333,1.66666667 L14.1666667,1.66666667 C14.626904,1.66666667 15,2.03976271 15,2.5 L15,5.83333333 L17.5,5.83333333 C17.9602373,5.83333333 18.3333333,6.20642938 18.3333333,6.66666667 L18.3333333,15 C18.3333333,15.4602373 17.9602373,15.8333333 17.5,15.8333333 L15,15.8333333 L15,17.5 C15,17.9602373 14.626904,18.3333333 14.1666667,18.3333333 L5.83333333,18.3333333 C5.37309604,18.3333333 5,17.9602373 5,17.5 L5,15.8333333 Z M5,14.1666667 L5,13.3333333 C5,12.873096 5.37309604,12.5 5.83333333,12.5 L14.1666667,12.5 C14.626904,12.5 15,12.873096 15,13.3333333 L15,14.1666667 L16.6666667,14.1666667 L16.6666667,7.5 L3.33333333,7.5 L3.33333333,14.1666667 L5,14.1666667 Z M6.66666667,3.33333333 L6.66666667,5.83333333 L13.3333333,5.83333333 L13.3333333,3.33333333 L6.66666667,3.33333333 Z M6.66666667,14.1666667 L6.66666667,16.6666667 L13.3333333,16.6666667 L13.3333333,14.1666667 L6.66666667,14.1666667 Z M4.16666667,8.33333333 L6.66666667,8.33333333 L6.66666667,10 L4.16666667,10 L4.16666667,8.33333333 Z" id="Shape" fill="#000000" fill-rule="nonzero"></path>
            </g>
        </g>
    </g>
</svg>