<?xml version="1.0" encoding="UTF-8"?>
<svg width="20px" height="20px" viewBox="0 0 20 20" version="1.1" xmlns="http://www.w3.org/2000/svg" xmlns:xlink="http://www.w3.org/1999/xlink">
    <title>0415267A-5AE6-49C9-B3D3-C0308078942D</title>
    <defs>
        <filter color-interpolation-filters="auto" id="filter-1">
            <feColorMatrix in="SourceGraphic" type="matrix" values="0 0 0 0 1.000000 0 0 0 0 1.000000 0 0 0 0 1.000000 0 0 0 1.000000 0"></feColorMatrix>
        </filter>
    </defs>
    <g id="2.-Catalog" stroke="none" stroke-width="1" fill="none" fill-rule="evenodd">
        <g id="cart-dropdown-empty" transform="translate(-1232.000000, -627.000000)">
            <g id="Group" transform="translate(665.000000, 507.000000)">
                <g id="Group" transform="translate(565.000000, 118.000000)">
                    <g id="icons/-sale" transform="translate(2.000000, 2.000000)" filter="url(#filter-1)">
                        <g id="percent-line">
                            <polygon id="Path" points="0 0 20 0 20 20 0 20"></polygon>
                            <path d="M14.5833333,17.5 C12.9725028,17.5 11.6666667,16.1941639 11.6666667,14.5833333 C11.6666667,12.9725028 12.9725028,11.6666667 14.5833333,11.6666667 C16.1941639,11.6666667 17.5,12.9725028 17.5,14.5833333 C17.5,16.1941639 16.1941639,17.5 14.5833333,17.5 Z M14.5833333,15.8333333 C15.2736893,15.8333333 15.8333333,15.2736893 15.8333333,14.5833333 C15.8333333,13.8929774 15.2736893,13.3333333 14.5833333,13.3333333 C13.8929774,13.3333333 13.3333333,13.8929774 13.3333333,14.5833333 C13.3333333,15.2736893 13.8929774,15.8333333 14.5833333,15.8333333 Z M5.41666667,8.33333333 C4.37464201,8.33333333 3.41177152,7.77741983 2.89075919,6.87500002 C2.36974686,5.9725802 2.36974686,4.86075313 2.89075919,3.95833332 C3.41177152,3.0559135 4.37464201,2.5 5.41666667,2.5 C7.02749716,2.5 8.33333327,3.80583617 8.33333327,5.41666667 C8.33333327,7.02749716 7.02749716,8.33333333 5.41666667,8.33333333 L5.41666667,8.33333333 Z M5.41666667,6.66666667 C6.1070226,6.66666667 6.66666667,6.1070226 6.66666667,5.41666667 C6.66666667,4.72631073 6.1070226,4.16666667 5.41666667,4.16666667 C4.72631073,4.16666667 4.16666667,4.72631073 4.16666667,5.41666667 C4.16666667,6.1070226 4.72631073,6.66666667 5.41666667,6.66666667 Z M15.8925,2.92916667 L17.0708333,4.1075 L4.10833333,17.0708333 L2.93,15.8925 L15.8916667,2.92916667 L15.8925,2.92916667 Z" id="Shape" fill="#000000" fill-rule="nonzero"></path>
                        </g>
                    </g>
                </g>
            </g>
        </g>
    </g>
</svg>