<?xml version="1.0" encoding="UTF-8"?>
<svg width="20px" height="20px" viewBox="0 0 20 20" version="1.1" xmlns="http://www.w3.org/2000/svg" xmlns:xlink="http://www.w3.org/1999/xlink">
    <title>3ED12ECC-C68E-4A27-9AF0-04C1FCD6640C</title>
    <defs>
        <filter id="filter-1">
            <feColorMatrix in="SourceGraphic" type="matrix" values="0 0 0 0 0.796078 0 0 0 0 0.815686 0 0 0 0 0.847059 0 0 0 1.000000 0"></feColorMatrix>
        </filter>
    </defs>
    <g id="1.-Home" stroke="none" stroke-width="1" fill="none" fill-rule="evenodd">
        <g id="catalog-dropdown" transform="translate(-1530.000000, -197.000000)">
            <g id="home-guest" transform="translate(0.000000, -0.000000)">
                <g id="icons/-search" transform="translate(0.000000, 177.000000)" filter="url(#filter-1)">
                    <g transform="translate(1530.000000, 20.000000)" id="search-line">
                        <polygon id="Path" points="0 0 20 0 20 20 0 20"></polygon>
                        <path d="M15.0258333,13.8475 L18.595,17.4158333 L17.4158333,18.595 L13.8475,15.0258333 C12.5197819,16.0901843 10.8683342,16.6690877 9.16666667,16.6666667 C5.02666667,16.6666667 1.66666667,13.3066667 1.66666667,9.16666667 C1.66666667,5.02666667 5.02666667,1.66666667 9.16666667,1.66666667 C13.3066667,1.66666667 16.6666667,5.02666667 16.6666667,9.16666667 C16.6690877,10.8683342 16.0901843,12.5197819 15.0258333,13.8475 Z M13.3541667,13.2291667 C14.4117607,12.1415714 15.0023892,10.6836911 15.0000072,9.16666667 C15.0000072,5.94333333 12.3891667,3.33333333 9.16666667,3.33333333 C5.94333333,3.33333333 3.33333333,5.94333333 3.33333333,9.16666667 C3.33333333,12.3891667 5.94333333,15.0000072 9.16666667,15.0000072 C10.6836911,15.0023892 12.1415714,14.4117607 13.2291667,13.3541667 L13.3541667,13.2291667 L13.3541667,13.2291667 Z" id="Shape" fill="#000000" fill-rule="nonzero"></path>
                    </g>
                </g>
            </g>
        </g>
    </g>
</svg>