<?xml version="1.0" encoding="UTF-8"?>
<svg width="49px" height="48px" viewBox="0 0 49 48" version="1.1" xmlns="http://www.w3.org/2000/svg" xmlns:xlink="http://www.w3.org/1999/xlink">
    <title>E712AAC6-214F-4BC5-9A11-527A9E7DC257</title>
    <g id="1.-Home" stroke="none" stroke-width="1" fill="none" fill-rule="evenodd">
        <g id="user-dropdown" transform="translate(-971.000000, -759.000000)" fill-rule="nonzero">
            <g id="Ideenmanagement" transform="translate(971.000000, 759.000000)">
                <polygon id="Path" fill="#303C49" points="18.375 43.0769231 18.375 45.7846154 21.07 45.7846154 23.275 48 25.725 48 27.93 45.7846154 30.625 45.7846154 30.625 43.0769231"></polygon>
                <rect id="Rectangle" fill="#E40045" x="39.2" y="22.7692308" width="9.8" height="3.69230769"></rect>
                <rect id="Rectangle" fill="#E40045" x="0" y="22.7692308" width="9.8" height="3.69230769"></rect>
                <polygon id="Rectangle" fill="#E40045" transform="translate(38.356129, 10.701840) rotate(-45.000000) translate(-38.356129, -10.701840) " points="33.4489172 8.87155106 43.2719941 8.84847413 43.2633403 12.532128 33.4402633 12.5552049"></polygon>
                <polygon id="Rectangle" fill="#E40045" transform="translate(10.634379, 38.528930) rotate(-45.000000) translate(-10.634379, -38.528930) " points="5.7271672 36.6986412 15.5502441 36.6755643 15.5415903 40.3592182 5.71851335 40.3822951"></polygon>
                <polygon id="Rectangle" fill="#E40045" transform="translate(38.349704, 38.535385) rotate(-45.000000) translate(-38.349704, -38.535385) " points="36.5194156 33.6281731 40.2030695 33.6195192 40.1799925 43.4425962 36.4963387 43.45125"></polygon>
                <polygon id="Rectangle" fill="#E40045" transform="translate(10.653053, 10.695385) rotate(-45.000000) translate(-10.653053, -10.695385) " points="8.82276492 5.78817308 12.5064188 5.77951923 12.4833418 15.6025962 8.799688 15.61125"></polygon>
                <rect id="Rectangle" fill="#E40045" x="22.6625" y="0" width="3.675" height="9.84615385"></rect>
                <path d="M24.5,13.5384615 C19.6462127,13.5411467 15.3651527,16.7328293 13.9559539,21.3994232 C12.546755,26.0660172 14.3409621,31.1096048 18.375,33.8215385 L18.375,40.6153846 L30.625,40.6153846 L30.625,33.8215385 C34.6590379,31.1096048 36.453245,26.0660172 35.0440461,21.3994232 C33.6348473,16.7328293 29.3537873,13.5411467 24.5,13.5384615 Z M26.95,32.8738462 L26.95,35.6923077 L22.05,35.6923077 L22.05,32.8738462 C17.9698268,31.6516445 15.4001573,27.6066877 16.0148331,23.3737957 C16.6295089,19.1409037 20.2423458,16.0022105 24.5,16.0022105 C28.7576542,16.0022105 32.3704911,19.1409037 32.9851669,23.3737957 C33.5998427,27.6066877 31.0301732,31.6516445 26.95,32.8738462 L26.95,32.8738462 Z" id="Shape" fill="#303C49"></path>
                <polygon id="Path" fill="#E40045" points="28.175 25.2307692 24.5 23.3846154 24.5 19.6923077 20.825 25.2307692 24.5 27.0769231 24.5 30.7692308"></polygon>
            </g>
        </g>
    </g>
</svg>