<?xml version="1.0" encoding="UTF-8"?>
<svg width="46px" height="48px" viewBox="0 0 46 48" version="1.1" xmlns="http://www.w3.org/2000/svg" xmlns:xlink="http://www.w3.org/1999/xlink">
    <title>8612BA67-5F4A-4E34-B356-DFC520C4B007</title>
    <g id="1.-Home" stroke="none" stroke-width="1" fill="none" fill-rule="evenodd">
        <g id="user-dropdown" transform="translate(-664.000000, -759.000000)" fill-rule="nonzero">
            <g id="man_icons_48px_anthrazit_rot_service_2" transform="translate(664.000000, 759.000000)">
                <polygon id="Path" fill="#E40045" points="32.3352941 24.8228571 30.1705882 23.1771429 40.4529412 9.6 43.5647059 7.68 45.1882353 5.48571429 45.7294118 2.46857143 43.5647059 0.822857143 40.8588235 2.19428571 39.2352941 4.38857143 38.2882353 7.95428571 28.0058824 21.5314286 25.8411765 19.8857143 25.3 22.9028571 20.9705882 26.3314286 8.65882353 42.7885714 8.79411765 44.7085714 13.1235294 48 15.0176471 47.7257143 19.2117647 42.24 27.3294118 31.4057143 29.6294118 26.1942857"></polygon>
                <g id="Group" fill="#303C49">
                    <polygon id="Path" points="12.7176471 16.0457143 12.7176471 16.0457143 20.5647059 24.96 24.0823529 22.08 24.4882353 19.6114286 24.6235294 19.2 18.9411765 12.7542857 16.2352941 3.56571429 11.7705882 0.274285714 6.08823529 0 3.11176471 2.74285714 10.1470588 4.38857143 10.8235294 8.22857143 8.52352941 11.7942857 1.08235294 10.0114286 2.3 14.5371429 9.87647059 16.8685714"></polygon>
                    <polygon id="Path" points="30.5764706 27.1542857 28.5470588 31.9542857 28.5470588 32.0914286 28.4117647 32.2285714 27.8705882 33.0514286 40.9941176 47.8628571 43.1588235 47.7257143 45.7294118 45.3942857 46 43.3371429 31.3882353 26.88"></polygon>
                </g>
            </g>
        </g>
    </g>
</svg>