<?xml version="1.0" encoding="UTF-8"?>
<svg width="53px" height="48px" viewBox="0 0 53 48" version="1.1" xmlns="http://www.w3.org/2000/svg" xmlns:xlink="http://www.w3.org/1999/xlink">
    <title>DB3F0B3F-F8C7-4D36-B5DF-740DA42CDD46</title>
    <g id="1.-Home" stroke="none" stroke-width="1" fill="none" fill-rule="evenodd">
        <g id="user-dropdown" transform="translate(-1275.000000, -759.000000)">
            <g id="Service_Servicenetzwerk_sales_Marketing_used" transform="translate(1275.000000, 759.000000)">
                <path d="M30.5719512,8.9772973 L30.6495122,9.08108108 L33.5968293,9.08108108 L33.5968293,9.08108108 C33.5933048,8.60910064 33.7532292,8.1505427 34.0492683,7.78378378 L29.3568293,7.78378378 L30.5719512,8.9772973 Z" id="Path"></path>
                <path d="M26.0604878,11.2864865 C25.7617697,11.5899293 25.3544269,11.7607126 24.9293902,11.7607126 C24.5043536,11.7607126 24.0970108,11.5899293 23.7982927,11.2864865 L21.5231707,9.08108108 C20.9086196,8.54375574 20.798465,7.62707721 21.2681106,6.95853529 C21.7377562,6.28999338 22.6350854,6.0861264 23.3458537,6.48648649 L28.0382927,6.48648649 L23.7336585,2.21837838 C22.4827743,0.968202651 20.4601526,0.968202651 19.2092683,2.21837838 L12.4743902,9.08108108 L13.6378049,14.7502703 L11.4014634,17.0335135 L11.4014634,19.3037838 L9.15219512,19.3037838 L8.02756098,20.4454054 L8.02756098,22.7156757 L5.76536585,22.7156757 L5.76536585,24.9859459 L3.54195122,24.9859459 L1.2797561,27.36 L1.2797561,29.6302703 L3.56780488,31.8875676 L5.85585366,31.8875676 L18.2009756,19.3037838 L23.8629268,20.3935135 L30.5978049,13.5308108 C31.4066448,12.6988995 31.7077749,11.4950337 31.3863415,10.3783784 L26.4741463,10.3783784 C26.440304,10.7187098 26.2948039,11.0381274 26.0604878,11.2864865 Z" id="Path" fill="#E50046" fill-rule="nonzero"></path>
                <path d="M43.9382927,9.08108108 L43.9382927,10.3783784 L33.5968293,10.3783784 L33.5968293,48 L52.9870749,48 L52.9870749,9.08108108 C52.988081,8.3168217 52.557289,7.61805616 51.8753659,7.27783784 L45.657561,4.16432432 C45.3770434,4.02142282 45.0672642,3.9459222 44.7526829,3.94378378 L41.8441463,3.94378378 C41.529565,3.9459222 41.2197859,4.02142282 40.9392683,4.16432432 L36.1821951,6.48648649 L43.9382927,6.48648649 L43.9382927,9.08108108 Z" id="Path" fill="#263A49" fill-rule="nonzero"></path>
                <rect id="Rectangle" fill="#263A49" fill-rule="nonzero" x="23.2682927" y="7.78378378" width="19.3902439" height="1.2972973"></rect>
                <path d="M48.074878,16.0994595 L48.074878,17.9805405 L41.7536585,17.9805405 C41.3629697,17.962568 40.9716485,17.9974762 40.5902439,18.0843243 C40.1669897,18.216748 39.8926642,18.6270061 39.9309756,19.0702703 C39.8830495,19.569899 40.2267323,20.0222395 40.7195122,20.1081081 C41.0645642,20.1730667 41.4157624,20.1991743 41.7665854,20.1859459 L48.074878,20.1859459 L48.074878,22.0540541 L42.0380488,22.0540541 C41.3182691,22.0999995 40.5975495,21.9801903 39.9309756,21.7037838 C39.4938598,21.4859376 39.1397543,21.130568 38.9226829,20.6918919 C38.6868359,20.1622536 38.5762308,19.585054 38.5995122,19.0054054 C38.4823624,17.9334111 39.0381734,16.9004572 39.9956098,16.4108108 C40.6612325,16.187642 41.3634392,16.0951484 42.0639024,16.1383784 L48.074878,16.0994595 Z" id="Path" fill="#FFFFFF" fill-rule="nonzero"></path>
                <path d="M41.6243902,22.8972973 L41.6243902,24.7264865 C41.2661158,24.7040064 40.9067809,24.7479842 40.5643902,24.8562162 C40.1513046,25.0204602 39.8940403,25.4367138 39.9309756,25.8810811 C39.9091673,26.2078228 40.0266398,26.5284886 40.2541463,26.7632432 C40.8486311,27.2128336 41.6828148,27.1518483 42.2060976,26.6205405 C42.2986184,26.5004309 42.3767176,26.369801 42.4387805,26.2313514 L42.9817073,24.9340541 C43.161103,24.4341932 43.463474,23.9879426 43.8607317,23.6367568 C44.3359644,23.2555901 44.9335975,23.0618194 45.5412195,23.0918919 C46.3441856,23.0345963 47.1279262,23.355926 47.6612195,23.9610811 C48.0758827,24.5375709 48.2894407,25.235252 48.2687805,25.9459459 C48.2882648,26.5734773 48.1314819,27.1938564 47.8163415,27.7362162 C47.2755639,28.4589881 46.3989645,28.8472482 45.502439,28.7610811 L45.502439,26.9578378 C45.7827904,26.9658636 46.0624834,26.9263914 46.3297561,26.8410811 C46.7090605,26.6959043 46.9428361,26.3119969 46.8985366,25.907027 C46.911729,25.6211794 46.8037071,25.3430905 46.6012195,25.1416216 C46.3810182,24.9470753 46.092438,24.8489814 45.7997561,24.8691892 C45.4921088,24.8551089 45.1895596,24.9517182 44.9465854,25.1416216 C44.6759087,25.4452817 44.4731531,25.8035824 44.3519512,26.1924324 C44.1585607,26.709505 43.9385074,27.2161351 43.6926829,27.7102703 C43.577374,27.9564637 43.4198572,28.1804092 43.2273171,28.3718919 C42.7177272,28.8183116 42.0540957,29.0465216 41.3787805,29.0075676 C40.5885401,29.0660554 39.8128287,28.7717519 39.2587805,28.2032432 C39.0135641,27.9323048 38.8440964,27.6011108 38.767561,27.2432432 C38.6438299,26.7601858 38.5829982,26.2630732 38.5865854,25.7643243 C38.5328807,24.9833635 38.7624486,24.209262 39.2329268,23.5848649 C39.4748236,23.3250898 39.7767099,23.1290544 40.1119512,23.0140541 C40.5316495,22.8915059 40.9676643,22.8346216 41.4046341,22.8454054 L41.6243902,22.8972973 Z" id="Path" fill="#FFFFFF" fill-rule="nonzero"></path>
                <polygon id="Path" fill="#FFFFFF" fill-rule="nonzero" points="48.074878 30.0194595 48.074878 35.2086486 46.5236585 35.2086486 46.5236585 31.9005405 44.364878 31.9005405 44.364878 35.027027 42.852439 35.027027 42.852439 31.9005405 40.2670732 31.9005405 40.2670732 35.3643243 38.767561 35.3643243 38.767561 30.0194595"></polygon>
                <path d="M48.074878,36.4410811 L48.074878,38.9189189 C48.0892617,39.4594959 48.0371612,39.9997899 47.9197561,40.5275676 C47.8304764,40.9003038 47.6480775,41.2440808 47.3897561,41.5264865 C47.1628419,41.7836401 46.8856307,41.9911867 46.5753659,42.1362162 C46.2083174,42.2962331 45.8212656,42.4053436 45.424878,42.4605405 C44.8514177,42.5449266 44.2722372,42.5839657 43.6926829,42.5772973 C42.7330915,42.5982492 41.7743391,42.5068209 40.8358537,42.3048649 C40.4439076,42.2149802 40.0771822,42.0376142 39.7629268,41.7859459 C39.4573,41.5637365 39.2163213,41.2636771 39.064878,40.9167568 C38.85802,40.4108848 38.7568262,39.8677864 38.767561,39.3210811 L38.767561,36.4410811 L48.074878,36.4410811 Z M46.6917073,38.3221622 L40.2282927,38.3221622 L40.2282927,38.9189189 C40.2196568,39.189256 40.2457246,39.4595845 40.3058537,39.7232432 C40.3619962,39.9057968 40.4697793,40.0680485 40.6160976,40.1902703 C40.999823,40.4508899 41.446287,40.6032295 41.9087805,40.6313514 C42.4887231,40.6880205 43.071237,40.7140024 43.6539024,40.7091892 C44.2732712,40.723225 44.892496,40.6754223 45.502439,40.5664865 C45.8491681,40.5128541 46.1678646,40.343799 46.4073171,40.0864865 C46.6327091,39.693661 46.7320112,39.2406764 46.6917073,38.7891892 L46.6917073,38.3221622 Z" id="Shape" fill="#FFFFFF" fill-rule="nonzero"></path>
            </g>
        </g>
    </g>
</svg>