<?xml version="1.0" encoding="UTF-8"?>
<svg width="29px" height="48px" viewBox="0 0 29 48" version="1.1" xmlns="http://www.w3.org/2000/svg" xmlns:xlink="http://www.w3.org/1999/xlink">
    <title>673162FD-6F82-4DE3-95EF-3EC30C9883B2</title>
    <g id="1.-Home" stroke="none" stroke-width="1" fill="none" fill-rule="evenodd">
        <g id="user-dropdown" transform="translate(-390.000000, -759.000000)" fill-rule="nonzero">
            <g id="Service_Servicenetzwerk_sales_Marketing_development" transform="translate(390.000000, 759.000000)">
                <path d="M3.34615385,30.8571429 L23.4230769,30.8571429 C23.4230769,30.8571429 23.4230769,27.4285714 18.9615385,21.7142857 C18.9615385,21.7142857 15.6153846,18.2857143 15.6153846,17.1428571 C15.6153846,17.1428571 18.9615385,18.2857143 22.3076923,18.2857143 L24.5384615,20.5714286 L29,17.1428571 L29,13.7142857 L18.9615385,5.71428571 L18.9615385,1.14285714 L16.7307692,0 L12.2692308,3.42857143 C12.2692308,3.42857143 -3.34615385,10.2857143 3.34615385,30.8571429 Z" id="Path" fill="#303C49"></path>
                <path d="M24.4269231,36.5714286 L2.34230769,36.5714286 C1.67307692,36.5714286 1.11538462,36 1.11538462,35.3142857 L1.11538462,34.4 C1.11538462,33.7142857 1.67307692,33.1428571 2.34230769,33.1428571 L24.4269231,33.1428571 C25.0961538,33.1428571 25.6538462,33.7142857 25.6538462,34.4 L25.6538462,35.3142857 C25.6538462,36 25.0961538,36.5714286 24.4269231,36.5714286 Z" id="Path" fill="#303C49"></path>
                <rect id="Rectangle" fill="#E40045" x="0" y="44.5714286" width="26.7692308" height="3.42857143"></rect>
                <polygon id="Path" fill="#303C49" points="0 40 0 44.5714286 26.7692308 44.5714286 26.7692308 40 25.6538462 38.8571429 1.11538462 38.8571429"></polygon>
            </g>
        </g>
    </g>
</svg>