<?xml version="1.0" encoding="UTF-8"?>
<svg width="21px" height="23px" viewBox="0 0 21 23" version="1.1" xmlns="http://www.w3.org/2000/svg" xmlns:xlink="http://www.w3.org/1999/xlink">
    <title>3233423A-79FE-49A5-AE74-4822A40AD853</title>
    <defs>
        <filter color-interpolation-filters="auto" id="filter-1">
            <feColorMatrix in="SourceGraphic" type="matrix" values="0 0 0 0 0.145098 0 0 0 0 0.227451 0 0 0 0 0.286275 0 0 0 1.000000 0"></feColorMatrix>
        </filter>
    </defs>
    <g id="13.-Contacts" stroke="none" stroke-width="1" fill="none" fill-rule="evenodd">
        <g id="icons/-services" transform="translate(-702.000000, -608.000000)" filter="url(#filter-1)">
            <g transform="translate(702.000000, 608.000000)">
                <polygon id="Path" fill="#000000" fill-rule="nonzero" points="12.0853859 16.6502463 9.45812808 15.5993432 6.30541872 16.6502463 3.15270936 15.5993432 0.52545156 16.6502463 0 21.3793103 12.6108374 21.3793103"></polygon>
                <path d="M20.1313629,0.689655172 L20.1313629,8.04597701 L14.3513957,8.04597701 L11.7241379,10.6732348 L11.7241379,8.04597701 L9.62233169,8.04597701 L9.62233169,0.689655172 L20.1313629,0.689655172 Z M15.4022989,5.94417077 L14.3513957,5.94417077 L14.3513957,6.99507389 L15.4022989,6.99507389 L15.4022989,5.94417077 Z M15.4022989,1.74055829 L14.3513957,1.74055829 L14.3513957,4.89326765 L15.4022989,4.89326765 L15.4022989,1.74055829 Z" id="Shape" fill="#000000" fill-rule="nonzero"></path>
                <path d="M6.30541872,15.0738916 C4.25615764,15.0738916 3.57307061,13.3924466 3.4679803,11.7110016 C3.36288998,9.87192118 4.4137931,8.24302135 6.30541872,8.24302135 C8.19704433,8.24302135 9.24794745,9.81937603 9.14285714,11.7110016 C9.03776683,13.3924466 8.3546798,15.0738916 6.30541872,15.0738916 Z" id="Path" fill="#000000" fill-rule="nonzero"></path>
            </g>
        </g>
    </g>
</svg>