<?xml version="1.0" encoding="UTF-8"?>
<svg width="124px" height="124px" viewBox="0 0 24 24" version="1.1" xmlns="http://www.w3.org/2000/svg" xmlns:xlink="http://www.w3.org/1999/xlink">
    <title>A94E8CD5-106C-4E22-90C6-B10BDA94021A</title>
    <defs>
        <filter id="filter-1">
            <feColorMatrix in="SourceGraphic" type="matrix" values="0 0 0 0 1.000000 0 0 0 0 1.000000 0 0 0 0 1.000000 0 0 0 1.000000 0"></feColorMatrix>
        </filter>
    </defs>
    <g id="1.-Home" stroke="none" stroke-width="1" fill="none" fill-rule="evenodd">
        <g id="home-user" transform="translate(-1496.000000, -116.000000)">
            <g id="icons/-shopping-cart" transform="translate(0.000000, 32.000000)" filter="url(#filter-1)">
                <g transform="translate(1496.000000, 84.000000)">
                    <g id="MAN_Icons_48px_Onlineshop" transform="translate(0.000000, 2.000000)" fill="#000000" fill-rule="nonzero">
                        <path d="M21.8181818,10.5262777 L8.72727273,10.5262777 L9.27272727,12.6315333 L21.8181818,12.6315333 L21.8181818,14.7367888 L7.63636364,14.7367888 L3.81818182,2.10525555 L0,2.10525555 L0,0 L5.45454545,0 L6.54545455,3.15788332 L24,3.15788332 L21.8181818,10.5262777 Z M9.27272727,16.8420444 C8.36896233,16.8420444 7.63636364,17.5490096 7.63636364,18.4210583 C7.63636364,19.2930348 8.36896233,20 9.27272727,20 C10.17649,20 10.9090909,19.2930348 10.9090909,18.4210583 C10.9090909,17.5490096 10.17649,16.8420444 9.27272727,16.8420444 Z M20.1818556,16.8420444 C19.2781137,16.8420444 18.5454545,17.5489936 18.5454545,18.4210221 C18.5454545,19.2929785 19.2781137,19.9999277 20.1818556,19.9999277 C21.0855227,19.9999277 21.8181818,19.2929785 21.8181818,18.4210221 C21.8181818,17.5489936 21.0855227,16.8420444 20.1818556,16.8420444 Z" id="Shape"></path>
                    </g>
                </g>
            </g>
        </g>
    </g>
</svg>