<?xml version="1.0" encoding="UTF-8"?>
<svg width="20px" height="20px" viewBox="0 0 20 20" version="1.1" xmlns="http://www.w3.org/2000/svg" xmlns:xlink="http://www.w3.org/1999/xlink">
    <title>12B030CE-79DF-45DC-A96E-37084321419C</title>
    <defs>
        <filter color-interpolation-filters="auto" id="filter-1">
            <feColorMatrix in="SourceGraphic" type="matrix" values="0 0 0 0 0.145098 0 0 0 0 0.227451 0 0 0 0 0.286275 0 0 0 1.000000 0"></feColorMatrix>
        </filter>
    </defs>
    <g id="13.-Contacts" stroke="none" stroke-width="1" fill="none" fill-rule="evenodd">
        <g id="icons/-store" transform="translate(-702.000000, -567.000000)" filter="url(#filter-1)">
            <g transform="translate(702.000000, 567.000000)" id="Group" fill="#000000" fill-rule="nonzero">
                <g id="MAN_Icons_48px_Onlineshop" transform="translate(0.000000, 1.666667)">
                    <path d="M18.1818182,8.77189811 L7.27272727,8.77189811 L7.72727273,10.5262777 L18.1818182,10.5262777 L18.1818182,12.2806574 L6.36363636,12.2806574 L3.18181818,1.75437962 L0,1.75437962 L0,0 L4.54545455,0 L5.45454545,2.63156943 L20,2.63156943 L18.1818182,8.77189811 Z M7.72727273,14.035037 C6.97413527,14.035037 6.36363636,14.6241747 6.36363636,15.350882 C6.36363636,16.077529 6.97413527,16.6666667 7.72727273,16.6666667 C8.48040836,16.6666667 9.09090909,16.077529 9.09090909,15.350882 C9.09090909,14.6241747 8.48040836,14.035037 7.72727273,14.035037 Z M16.818213,14.035037 C16.0650947,14.035037 15.4545455,14.6241613 15.4545455,15.3508518 C15.4545455,16.077482 16.0650947,16.6666064 16.818213,16.6666064 C17.5712689,16.6666064 18.1818182,16.077482 18.1818182,15.3508518 C18.1818182,14.6241613 17.5712689,14.035037 16.818213,14.035037 Z" id="Shape"></path>
                </g>
            </g>
        </g>
    </g>
</svg>