<?xml version="1.0" encoding="UTF-8"?>
<svg width="49px" height="29px" viewBox="0 0 49 29" version="1.1" xmlns="http://www.w3.org/2000/svg" xmlns:xlink="http://www.w3.org/1999/xlink">
    <title>E93840EA-7BEE-45B9-A1DC-0F8AB45DC3CD</title>
    <g id="4.-Cart" stroke="none" stroke-width="1" fill="none" fill-rule="evenodd">
        <g id="cart" transform="translate(-389.000000, -721.000000)" fill="#9CA6B3" fill-rule="nonzero">
            <g id="man_icons_14px_anthrazit_man_truck_tgl" transform="translate(413.500000, 735.500000) scale(-1, 1) translate(-413.500000, -735.500000) translate(389.500000, 721.000000)">
                <path d="M37.3461538,23.5769231 C38.7969429,23.5767707 39.9789741,24.741671 40,26.1923077 C40.0156066,27.2690509 39.3790067,28.2484812 38.3886704,28.671392 C37.3983341,29.0943029 36.2506171,28.8768432 35.483627,28.1209689 C34.716637,27.3650947 34.4824463,26.2206744 34.8908555,25.2242701 C35.2992646,24.2278658 36.2692975,23.5770362 37.3461538,23.5769231 Z M9.92307692,23.5769231 C11.367514,23.5769231 12.5384615,24.7478707 12.5384615,26.1923077 C12.5540067,27.2725306 11.9131861,28.2543616 10.9180873,28.6749582 C9.92298846,29.0955549 8.77224954,28.8709591 8.00833753,28.1070471 C7.24442551,27.3431351 7.01982974,26.1923962 7.44042637,25.1972974 C7.86102299,24.2021986 8.84285404,23.5613779 9.92307692,23.5769231 Z M47.3076923,1.0658141e-14 L47.3076923,19.2307692 L41.2307692,19.2307692 L44.2307692,22.2692308 L44.2307692,25.5384615 L41.8461538,25.5384615 C41.5501333,23.2791619 39.6247637,21.5896042 37.3461538,21.5896042 C35.067544,21.5896042 33.1421744,23.2791619 32.8461538,25.5384615 L32.8461538,25.5384615 L14.4615385,25.5384615 C14.0869633,23.3223956 12.1705685,21.6983323 9.92307692,21.6923077 C7.66680443,21.6953615 5.73773662,23.3164269 5.34615385,25.5384615 L5.34615385,25.5384615 L7.10542736e-14,25.5384615 L7.10542736e-14,15.6538462 L1.23076923,5.76923077 L14.6153846,5.76923077 L14.6153846,18.9615385 L16.5384615,18.9615385 L16.5384615,1.0658141e-14 L47.3076923,1.0658141e-14 Z M11.5384615,9.07692308 L2.46153846,9.07692308 L1.69230769,15.6538462 L4.96153846,15.6538462 L6.57692308,14 L11.5384615,14 L11.5384615,9.07692308 Z" id="Combined-Shape"></path>
            </g>
        </g>
    </g>
</svg>