<?xml version="1.0" encoding="UTF-8"?>
<svg width="24px" height="24px" viewBox="0 0 24 24" version="1.1" xmlns="http://www.w3.org/2000/svg" xmlns:xlink="http://www.w3.org/1999/xlink">
    <title>F075A2F9-F4CD-4B48-BA65-25D6B88D7C8E</title>
    <defs>
        <filter color-interpolation-filters="auto" id="filter-1">
            <feColorMatrix in="SourceGraphic" type="matrix" values="0 0 0 0 0.439216 0 0 0 0 0.498039 0 0 0 0 0.556863 0 0 0 1.000000 0"></feColorMatrix>
        </filter>
    </defs>
    <g id="3.-Product-inner" stroke="none" stroke-width="1" fill="none" fill-rule="evenodd">
        <g id="product-inner-warehouse-items" transform="translate(-868.000000, -604.000000)">
            <g id="product-preview" transform="translate(360.000000, 269.000000)">
                <g id="icons/-quarantee" transform="translate(508.000000, 335.000000)" filter="url(#filter-1)">
                    <g id="new_releases-24px">
                        <polygon id="Path" points="0 0 24 0 24 24 0 24"></polygon>
                        <path d="M15.0909091,2.5 L16.8090909,5.38676541 L20.0909091,6.13115146 L19.7818182,9.4718108 L22,11.9954611 L19.7818182,14.5191113 L20.0909091,17.8597707 L16.8090909,18.6041567 L15.0909091,21.4909221 L12,20.1655518 L8.90909091,21.5 L7.19090909,18.6132346 L3.90909091,17.8688485 L4.21818182,14.5191113 L2,11.9954611 L4.21818182,9.46273292 L3.90909091,6.12207358 L7.19090909,5.38676541 L8.90909091,2.5 L12,3.82537028 L15.0909091,2.5 Z M14.3454545,4.7967033 L12,5.80434783 L9.65454545,4.80578118 L8.35454545,6.99354993 L5.86363636,7.54730053 L6.1,10.0709508 L4.41818182,11.9954611 L6.1,13.9018156 L5.86363636,16.4436216 L8.35454545,17.0064501 L9.65454545,19.1942188 L12,18.1865743 L14.3454545,19.1942188 L15.6454545,17.0064501 L18.1363636,16.4436216 L17.9,13.9108935 L19.5818182,11.9954611 L17.9,10.0800287 L18.1363636,7.54730053 L15.6454545,6.98447205 L14.3454545,4.7967033 Z M15.5863224,8.54545455 L16.7826087,9.69683399 L10.8045592,15.4545455 L7.2173913,11.9995929 L8.41283212,10.8482134 L10.8045592,13.1517866 L15.5863224,8.54545455 Z" id="Combined-Shape" fill="#000000" fill-rule="nonzero"></path>
                    </g>
                </g>
            </g>
        </g>
    </g>
</svg>