<?xml version="1.0" encoding="UTF-8"?>
<svg width="20px" height="20px" viewBox="0 0 20 20" version="1.1" xmlns="http://www.w3.org/2000/svg" xmlns:xlink="http://www.w3.org/1999/xlink">
    <title>0F760E06-B035-4135-8484-4283A58BC18D</title>
    <defs>
        <filter color-interpolation-filters="auto" id="filter-1">
            <feColorMatrix in="SourceGraphic" type="matrix" values="0 0 0 0 1.000000 0 0 0 0 1.000000 0 0 0 0 1.000000 0 0 0 1.000000 0"></feColorMatrix>
        </filter>
    </defs>
    <g id="2.-Catalog" stroke="none" stroke-width="1" fill="none" fill-rule="evenodd">
        <g id="cart-dropdown-empty" transform="translate(-1232.000000, -593.000000)">
            <g id="Group" transform="translate(665.000000, 507.000000)">
                <g id="icons/-quarantee" transform="translate(565.000000, 84.000000)" filter="url(#filter-1)">
                    <g transform="translate(2.000000, 2.000000)" id="new_releases-24px" fill="#000000" fill-rule="nonzero">
                        <path d="M13.0909091,0.5 L14.8090909,3.38676541 L18.0909091,4.13115146 L17.7818182,7.4718108 L20,9.99546106 L17.7818182,12.5191113 L18.0909091,15.8597707 L14.8090909,16.6041567 L13.0909091,19.4909221 L10,18.1655518 L6.90909091,19.5 L5.19090909,16.6132346 L1.90909091,15.8688485 L2.21818182,12.5191113 L0,9.99546106 L2.21818182,7.46273292 L1.90909091,4.12207358 L5.19090909,3.38676541 L6.90909091,0.5 L10,1.82537028 L13.0909091,0.5 Z M12.3454545,2.7967033 L10,3.80434783 L7.65454545,2.80578118 L6.35454545,4.99354993 L3.86363636,5.54730053 L4.1,8.07095079 L2.41818182,9.99546106 L4.1,11.9018156 L3.86363636,14.4436216 L6.35454545,15.0064501 L7.65454545,17.1942188 L10,16.1865743 L12.3454545,17.1942188 L13.6454545,15.0064501 L16.1363636,14.4436216 L15.9,11.9108935 L17.5818182,9.99546106 L15.9,8.08002867 L16.1363636,5.54730053 L13.6454545,4.98447205 L12.3454545,2.7967033 Z M13.5863224,6.54545455 L14.7826087,7.69683399 L8.80455918,13.4545455 L5.2173913,9.99959286 L6.41283212,8.84821342 L8.80455918,11.1517866 L13.5863224,6.54545455 Z" id="Combined-Shape"></path>
                    </g>
                </g>
            </g>
        </g>
    </g>
</svg>